<mxfile host="app.diagrams.net" agent="Mozilla/5.0 (Macintosh; Intel Mac OS X 10_15_7) AppleWebKit/537.36 (KHTML, like Gecko) Chrome/131.0.0.0 Safari/537.36" version="24.8.6">
  <diagram name="Page-1" id="wVMwYLyxr4PYHoP_r0zS">
    <mxGraphModel dx="1493" dy="2095" grid="1" gridSize="10" guides="1" tooltips="1" connect="1" arrows="1" fold="1" page="1" pageScale="1" pageWidth="850" pageHeight="1100" math="0" shadow="1">
      <root>
        <mxCell id="0" />
        <mxCell id="1" parent="0" />
        <mxCell id="title" value="[TMRW.IT] Distributed Cloud Platform" style="text;html=1;fontSize=20;fontStyle=1;sketch=1;curveFitting=1;jiggle=2;" parent="1" vertex="1">
          <mxGeometry x="40" y="10" width="400" height="30" as="geometry" />
        </mxCell>
        <mxCell id="platformLayer" value="Platform Services Layer" style="swimlane;whiteSpace=wrap;html=1;fillColor=#0066CC;sketch=1;curveFitting=1;jiggle=2;" parent="1" vertex="1">
          <mxGeometry x="50" y="300" width="750" height="310" as="geometry" />
        </mxCell>
        <mxCell id="compute" value="Compute Services&lt;div style=&quot;font-size: 8px;&quot;&gt;&lt;ul style=&quot;font-family: &amp;quot;Architects Daughter&amp;quot;; text-align: left;&quot;&gt;&lt;li&gt;Kubernetes clusters managed via Rancher.&lt;/li&gt;&lt;li&gt;Horizontal and vertical pod autoscaling.&lt;/li&gt;&lt;/ul&gt;&lt;/div&gt;" style="rectangle;whiteSpace=wrap;html=1;strokeColor=#000000;fillColor=#ffffff;sketch=1;curveFitting=1;jiggle=2;verticalAlign=top;" parent="platformLayer" vertex="1">
          <mxGeometry x="30" y="50" width="200" height="80" as="geometry" />
        </mxCell>
        <mxCell id="storage" value="Storage Services&lt;div style=&quot;font-size: 8px;&quot;&gt;&lt;ul style=&quot;font-family: &amp;quot;Architects Daughter&amp;quot;; text-align: left;&quot;&gt;&lt;li&gt;Distributed storage architecture leveraging Conduit Networks.&lt;/li&gt;&lt;li&gt;Replication and redundancy for high availability.&lt;/li&gt;&lt;/ul&gt;&lt;/div&gt;" style="rectangle;whiteSpace=wrap;html=1;strokeColor=#000000;fillColor=#ffffff;sketch=1;curveFitting=1;jiggle=2;verticalAlign=top;" parent="platformLayer" vertex="1">
          <mxGeometry x="265" y="50" width="200" height="80" as="geometry" />
        </mxCell>
        <mxCell id="networking" value="Networking Services&lt;div style=&quot;font-size: 8px;&quot;&gt;&lt;ul style=&quot;font-family: &amp;quot;Architects Daughter&amp;quot;; text-align: left;&quot;&gt;&lt;li&gt;Calico for secure pod-level communication.&lt;/li&gt;&lt;li&gt;Load balancing and service discovery (Ingress/DNS).&lt;/li&gt;&lt;/ul&gt;&lt;/div&gt;" style="rectangle;whiteSpace=wrap;html=1;strokeColor=#000000;fillColor=#ffffff;sketch=1;curveFitting=1;jiggle=2;verticalAlign=top;" parent="platformLayer" vertex="1">
          <mxGeometry x="500" y="50" width="200" height="80" as="geometry" />
        </mxCell>
        <mxCell id="monitoring" value="Monitoring &amp;amp; Observability&lt;div style=&quot;font-size: 8px;&quot;&gt;&lt;ul style=&quot;font-family: &amp;quot;Architects Daughter&amp;quot;; text-align: left;&quot;&gt;&lt;li&gt;Prometheus for metrics collection.&lt;/li&gt;&lt;li&gt;Grafana for visualization and alerting.&lt;/li&gt;&lt;/ul&gt;&lt;/div&gt;" style="rectangle;whiteSpace=wrap;html=1;strokeColor=#000000;fillColor=#ffffff;sketch=1;curveFitting=1;jiggle=2;verticalAlign=top;" parent="platformLayer" vertex="1">
          <mxGeometry x="500" y="161" width="200" height="80" as="geometry" />
        </mxCell>
        <mxCell id="devOps" value="DevOps Toolchain&lt;div style=&quot;font-size: 8px;&quot;&gt;&lt;ul style=&quot;font-family: &amp;quot;Architects Daughter&amp;quot;; text-align: left;&quot;&gt;&lt;li&gt;CI/CD pipelines powered by GitLab CI.&lt;/li&gt;&lt;li&gt;Infrastructure as Code (IaC) with Terraform and Helm.&lt;/li&gt;&lt;/ul&gt;&lt;/div&gt;" style="rectangle;whiteSpace=wrap;html=1;strokeColor=#000000;fillColor=#ffffff;sketch=1;curveFitting=1;jiggle=2;verticalAlign=top;" parent="platformLayer" vertex="1">
          <mxGeometry x="265" y="161" width="200" height="80" as="geometry" />
        </mxCell>
        <mxCell id="TKYElfM-atQ_MffcHc0V-9" value="Backup and Recovery&lt;div&gt;&lt;ul style=&quot;font-family: &amp;quot;Architects Daughter&amp;quot;; text-align: left;&quot;&gt;&lt;li&gt;&lt;font style=&quot;font-size: 8px;&quot;&gt;Velero for seamless backup and disaster recovery.&lt;/font&gt;&lt;/li&gt;&lt;/ul&gt;&lt;/div&gt;" style="rectangle;whiteSpace=wrap;html=1;strokeColor=#000000;fillColor=#ffffff;sketch=1;curveFitting=1;jiggle=2;verticalAlign=top;" vertex="1" parent="platformLayer">
          <mxGeometry x="30" y="161" width="200" height="80" as="geometry" />
        </mxCell>
        <mxCell id="userLayer" value="User Interaction Layer" style="swimlane;whiteSpace=wrap;html=1;fillColor=#FF3333;sketch=1;curveFitting=1;jiggle=2;" parent="1" vertex="1">
          <mxGeometry x="50" y="60" width="750" height="250" as="geometry" />
        </mxCell>
        <mxCell id="userDashboard" value="User Dashboard&lt;div&gt;&lt;br&gt;&lt;div style=&quot;text-align: left;&quot;&gt;&lt;ul&gt;&lt;li&gt;&lt;strong style=&quot;font-size: 8px; background-color: initial;&quot;&gt;Frontend&lt;/strong&gt;&lt;span style=&quot;font-size: 8px; background-color: initial;&quot;&gt;: React (for user interface, dashboard, and real-time updates).&lt;/span&gt;&lt;/li&gt;&lt;li&gt;&lt;strong style=&quot;font-size: 8px; background-color: initial;&quot;&gt;Backend&lt;/strong&gt;&lt;span style=&quot;font-size: 8px; background-color: initial;&quot;&gt;: Node.js + Express (for APIs, server-side logic, and handling requests).&lt;/span&gt;&lt;/li&gt;&lt;li&gt;&lt;strong style=&quot;background-color: initial; font-size: 8px;&quot;&gt;Database&lt;/strong&gt;&lt;span style=&quot;background-color: initial; font-size: 8px;&quot;&gt;: MongoDB (for structured and unstructured data like user profiles, server usage, logs, etc.).&lt;/span&gt;&lt;/li&gt;&lt;/ul&gt;&lt;/div&gt;&lt;div&gt;&lt;div style=&quot;font-size: 8px;&quot;&gt;&lt;ul&gt;&lt;br&gt;&lt;/ul&gt;&lt;br&gt;&lt;/div&gt;&lt;/div&gt;&lt;/div&gt;" style="ellipse;whiteSpace=wrap;html=1;strokeColor=#000000;fillColor=#FFFFFF;sketch=1;curveFitting=1;jiggle=2;fillStyle=solid;align=center;" parent="userLayer" vertex="1">
          <mxGeometry x="17" y="40" width="240" height="220" as="geometry" />
        </mxCell>
        <mxCell id="apiSdk" value="API/SDK Interface" style="ellipse;whiteSpace=wrap;html=1;strokeColor=#000000;fillColor=#FFFFFF;sketch=1;curveFitting=1;jiggle=2;fillStyle=solid;" parent="userLayer" vertex="1">
          <mxGeometry x="480" y="40" width="240" height="220" as="geometry" />
        </mxCell>
        <mxCell id="authAccess" value="Authentication &amp;amp; Access Control&lt;div&gt;&lt;span style=&quot;font-size: 8px; background-color: initial; font-weight: 600;&quot; class=&quot;notion-enable-hover&quot; data-token-index=&quot;0&quot;&gt;&lt;br&gt;&lt;/span&gt;&lt;/div&gt;&lt;div style=&quot;text-align: left;&quot;&gt;&lt;ul&gt;&lt;li&gt;&lt;span style=&quot;font-size: 8px; background-color: initial; font-weight: 600;&quot; class=&quot;notion-enable-hover&quot; data-token-index=&quot;0&quot;&gt;Security&lt;/span&gt;&lt;span style=&quot;font-size: 8px; background-color: initial;&quot;&gt;: Integration of OPA, OKTA, and ABAC solutions for user authentication and fine-grained access control.&lt;/span&gt;&lt;/li&gt;&lt;/ul&gt;&lt;/div&gt;" style="ellipse;whiteSpace=wrap;html=1;strokeColor=#000000;fillColor=#FFFFFF;sketch=1;curveFitting=1;jiggle=2;fillStyle=solid;align=center;" parent="userLayer" vertex="1">
          <mxGeometry x="247" y="30" width="243" height="210" as="geometry" />
        </mxCell>
        <mxCell id="infraLayer" value="Infrastructure Layer" style="swimlane;whiteSpace=wrap;html=1;fillColor=#006600;sketch=1;curveFitting=1;jiggle=2;" parent="1" vertex="1">
          <mxGeometry x="50" y="630" width="750" height="420" as="geometry" />
        </mxCell>
        <mxCell id="distributedServers" value="Distributed Server Network&lt;div style=&quot;font-size: 8px;&quot;&gt;&lt;span style=&quot;text-align: left; background-color: initial;&quot;&gt;&lt;br&gt;&lt;/span&gt;&lt;/div&gt;&lt;div style=&quot;font-size: 8px;&quot;&gt;&lt;span style=&quot;text-align: left; background-color: initial;&quot;&gt;cndt.io Networksâ€™ Military-Grade Servers&lt;/span&gt;&lt;span style=&quot;text-align: left; background-color: initial;&quot;&gt;:&lt;/span&gt;&lt;div style=&quot;text-align: left; font-size: 8px;&quot;&gt;&lt;ul&gt;&lt;li&gt;&lt;span style=&quot;background-color: initial;&quot;&gt;Edge-based compute and storage capabilities.&lt;/span&gt;&lt;/li&gt;&lt;li&gt;&lt;span style=&quot;background-color: initial;&quot;&gt;High-security design for user trust.&lt;/span&gt;&lt;/li&gt;&lt;li&gt;&lt;span style=&quot;background-color: initial;&quot;&gt;Geographic distribution for latency minimization.&lt;/span&gt;&lt;/li&gt;&lt;/ul&gt;&lt;/div&gt;&lt;/div&gt;" style="rectangle;whiteSpace=wrap;html=1;strokeColor=#000000;fillColor=#ffffff;sketch=1;curveFitting=1;jiggle=2;verticalAlign=top;" parent="infraLayer" vertex="1">
          <mxGeometry x="30" y="50" width="200" height="100" as="geometry" />
        </mxCell>
        <mxCell id="scalability" value="Scalability &amp;amp; Elasticity&lt;div style=&quot;font-size: 8px;&quot;&gt;&lt;ul style=&quot;text-align: left;&quot;&gt;&lt;li&gt;&lt;span style=&quot;background-color: initial;&quot;&gt;Kubernetes orchestration for workload distribution.&lt;/span&gt;&lt;/li&gt;&lt;li&gt;&lt;span style=&quot;background-color: initial;&quot;&gt;Dynamic scaling of resources (compute/storage) per user demand.&lt;/span&gt;&lt;/li&gt;&lt;/ul&gt;&lt;/div&gt;" style="rectangle;whiteSpace=wrap;html=1;strokeColor=#000000;fillColor=#ffffff;sketch=1;curveFitting=1;jiggle=2;verticalAlign=top;" parent="infraLayer" vertex="1">
          <mxGeometry x="265" y="50" width="200" height="100" as="geometry" />
        </mxCell>
        <mxCell id="dataFlow" value="Data Flow &amp;amp; Interconnectivity&lt;div style=&quot;font-size: 8px;&quot;&gt;&lt;ul style=&quot;text-align: left;&quot;&gt;&lt;li&gt;&lt;span style=&quot;background-color: initial;&quot;&gt;Secure data transfer across distributed servers.&lt;/span&gt;&lt;/li&gt;&lt;li&gt;&lt;span style=&quot;background-color: initial;&quot;&gt;Encryption in transit and at rest.&lt;/span&gt;&lt;/li&gt;&lt;/ul&gt;&lt;/div&gt;" style="rectangle;whiteSpace=wrap;html=1;strokeColor=#000000;fillColor=#ffffff;sketch=1;curveFitting=1;jiggle=2;verticalAlign=top;" parent="infraLayer" vertex="1">
          <mxGeometry x="500" y="50" width="200" height="100" as="geometry" />
        </mxCell>
        <mxCell id="TKYElfM-atQ_MffcHc0V-8" value="&lt;li&gt;&lt;strong&gt;Core Services&lt;/strong&gt;:&lt;ul&gt;&lt;li&gt;&lt;strong&gt;Compute Services&lt;/strong&gt;:&lt;ul&gt;&lt;li&gt;Kubernetes clusters managed via Rancher.&lt;/li&gt;&lt;li&gt;Horizontal and vertical pod autoscaling.&lt;/li&gt;&lt;/ul&gt;&lt;/li&gt;&lt;li&gt;&lt;strong&gt;Storage Services&lt;/strong&gt;:&lt;ul&gt;&lt;li&gt;Distributed storage architecture leveraging Conduit Networks.&lt;/li&gt;&lt;li&gt;Replication and redundancy for high availability.&lt;/li&gt;&lt;/ul&gt;&lt;/li&gt;&lt;li&gt;&lt;strong&gt;Networking Services&lt;/strong&gt;:&lt;ul&gt;&lt;li&gt;Calico for secure pod-level communication.&lt;/li&gt;&lt;li&gt;Load balancing and service discovery (Ingress/DNS).&lt;/li&gt;&lt;/ul&gt;&lt;/li&gt;&lt;/ul&gt;&lt;/li&gt;&lt;li&gt;&lt;strong&gt;Backup and Recovery&lt;/strong&gt;:&lt;ul&gt;&lt;li&gt;Velero for seamless backup and disaster recovery.&lt;/li&gt;&lt;/ul&gt;&lt;/li&gt;&lt;li&gt;&lt;strong&gt;Monitoring and Observability&lt;/strong&gt;:&lt;ul&gt;&lt;li&gt;Prometheus for metrics collection.&lt;/li&gt;&lt;li&gt;Grafana for visualization and alerting.&lt;/li&gt;&lt;/ul&gt;&lt;/li&gt;&lt;li&gt;&lt;strong&gt;DevOps Toolchain&lt;/strong&gt;:&lt;ul&gt;&lt;li&gt;CI/CD pipelines powered by GitLab CI.&lt;/li&gt;&lt;li&gt;Infrastructure as Code (IaC) with Terraform and Helm.&lt;/li&gt;&lt;/ul&gt;&lt;/li&gt;" style="shape=note;size=20;whiteSpace=wrap;html=1;sketch=1;hachureGap=4;jiggle=2;curveFitting=1;fontFamily=Architects Daughter;fontSource=https%3A%2F%2Ffonts.googleapis.com%2Fcss%3Ffamily%3DArchitects%2BDaughter;align=left;" vertex="1" parent="1">
          <mxGeometry x="1230" y="50" width="210" height="710" as="geometry" />
        </mxCell>
        <mxCell id="supportMgmt" value="Support &amp; Management" style="ellipse;whiteSpace=wrap;html=1;strokeColor=#000000;fillColor=#FFFFFF;sketch=1;curveFitting=1;jiggle=2;fillStyle=solid;" parent="1" vertex="1">
          <mxGeometry x="520" y="-20" width="200" height="60" as="geometry" />
        </mxCell>
      </root>
    </mxGraphModel>
  </diagram>
</mxfile>
